<svg width="116" height="125" viewBox="0 0 116 125" xmlns="http://www.w3.org/2000/svg" xmlns:xlink="http://www.w3.org/1999/xlink" xmlns:figma="http://www.figma.com/figma/ns"><title>package-icon</title><desc>Created using Figma</desc><g figma:type="canvas"><g figma:type="frame"><use xlink:href="#a" transform="translate(.64)" fill="#E7A800" style="mix-blend-mode:normal" figma:type="vector"/></g></g><defs><path id="a" d="M76.84 86.98l1.57-1.043v8.855l-1.57 1.041V86.98zm18.296-1.043l1.569-1.041v-8.854l-1.569 1.041v8.855zm-7.84 4.167l1.568-1.041v-8.855l-1.569 1.042v8.854zm3.136-2.083L92 86.979v-8.854l-1.568 1.042v8.854zm-5.75 3.646l1.568-1.042v-8.854l-1.568 1.041v8.855zm-4.705 2.604l1.569-1.042v-8.854l-1.569 1.042v8.854zM115 35.937v59.896L63.773 125 0 88.542V28.646L51.227 0 115 35.938zM51.227 11.98L40.25 18.23l46.523 27.084 12.023-6.771c0 .52-47.569-26.563-47.569-26.563zM57.5 67.188L10.454 40.103v42.709L57.5 109.374V67.187zm18.296-16.146L29.273 23.958 16.727 31.25 63.25 57.813c-.523.52 12.546-6.771 12.546-6.771zm28.749-3.646l-36.59 19.791v43.75l36.59-20.833V47.396z"/></defs></svg>